<?xml version="1.0" encoding="utf-8"?>
<!-- Generator: Adobe Illustrator 26.0.1, SVG Export Plug-In . SVG Version: 6.00 Build 0)  -->
<svg version="1.1" id="Layer_1" xmlns="http://www.w3.org/2000/svg" xmlns:xlink="http://www.w3.org/1999/xlink" x="0px" y="0px"
	 viewBox="0 0 248 248" enable-background="new 0 0 248 248" xml:space="preserve">
<path fill="#280071" d="M76,76v64H12V76h32V44h32V12h64v64H76z M188,174c-7.732,0-14,6.268-14,14s6.268,14,14,14s14-6.268,14-14
	S195.732,174,188,174z M156,208c-6.627,0-12,5.373-12,12c0,6.627,5.373,12,12,12c6.627,0,12-5.373,12-12
	C168,213.373,162.627,208,156,208z M124,206c-7.732,0-14,6.268-14,14s6.268,14,14,14s14-6.268,14-14S131.732,206,124,206z M156,172
	c-8.837,0-16,7.163-16,16s7.163,16,16,16s16-7.163,16-16S164.837,172,156,172z M124,172c-8.837,0-16,7.163-16,16s7.163,16,16,16
	s16-7.163,16-16S132.837,172,124,172z M220,144c-6.627,0-12,5.373-12,12c0,6.627,5.373,12,12,12c6.627,0,12-5.373,12-12
	C232,149.373,226.627,144,220,144z M172,156c0,8.837,7.163,16,16,16s16-7.163,16-16s-7.163-16-16-16S172,147.163,172,156z M220,138
	c7.732,0,14-6.268,14-14s-6.268-14-14-14s-14,6.268-14,14S212.268,138,220,138z M204,124c0-8.837-7.163-16-16-16s-16,7.163-16,16
	s7.163,16,16,16S204,132.837,204,124z"/>
<rect fill="none" width="248" height="248"/>
</svg>
